<?xml version="1.0"?>
<svg xmlns="http://www.w3.org/2000/svg" xmlns:xlink="http://www.w3.org/1999/xlink" version="1.1" id="Capa_1" x="0px" y="0px" viewBox="0 0 455 455" style="enable-background:new 0 0 455 455;" xml:space="preserve" width="512px" height="512px" class=""><g><g>
	<polygon style="fill:#49D0B9" points="335,0 295,227.5 335,455 425,455 425,355.001 405,329.47 425,305.001 425,0  " data-original="#185F8D" class="" data-old_color="#185F8D"/>
	<path style="fill:#49D0B9" d="M395,275c16.5,0,30,13.5,30,30v-60h-30V275z" data-original="#185F8D" class="" data-old_color="#185F8D"/>
	<path style="fill:#FFCC75;" d="M425,135h-30V30h-30l-20,197.5L365,425h30V245h30c16.5,0,30-13.5,30-30v-50   C455,148.5,441.5,135,425,135z" data-original="#FFCC75" class=""/>
	<path style="fill:#F2EBD9;" d="M395,275h-30V30h-50v395h50v-40h30c16.5,0,30-13.5,30-30v-50C425,288.5,411.5,275,395,275z" data-original="#F2EBD9" class=""/>
	<rect x="40" style="fill:#6E7E85" width="295" height="455" data-original="#6DA8D6" class="" data-old_color="#6DA8D6"/>
	<path style="fill:#1C0F13" d="M65,392.5H15c-8.284,0-15,6.716-15,15s6.716,15,15,15h50c8.284,0,15-6.716,15-15   S73.284,392.5,65,392.5z" data-original="#98D9D5" class="active-path" data-old_color="#98D9D5"/>
	<path style="fill:#1C0F13" d="M65,272.5H15c-8.284,0-15,6.716-15,15s6.716,15,15,15h50c8.284,0,15-6.716,15-15   S73.284,272.5,65,272.5z" data-original="#98D9D5" class="active-path" data-old_color="#98D9D5"/>
	<path style="fill:#1C0F13" d="M65,152.5H15c-8.284,0-15,6.716-15,15s6.716,15,15,15h50c8.284,0,15-6.716,15-15   S73.284,152.5,65,152.5z" data-original="#98D9D5" class="active-path" data-old_color="#98D9D5"/>
	<path style="fill:#1C0F13" d="M65,32.5H15c-8.284,0-15,6.716-15,15s6.716,15,15,15h50c8.284,0,15-6.716,15-15S73.284,32.5,65,32.5   z" data-original="#98D9D5" class="active-path" data-old_color="#98D9D5"/>
</g></g> </svg>
